<svg width="46" height="43" viewBox="0 0 46 43" fill="none" xmlns="http://www.w3.org/2000/svg">
<g filter="url(#filter0_dd_1_7)">
<path d="M9.79935 16.5914C9.75727 17.6145 9.77581 18.6275 10.3248 19.5443C10.4327 19.7245 10.5594 19.8933 10.7426 20.1634C10.7426 19.5494 10.7179 19.0488 10.7476 18.5514C10.8115 17.4826 11.3461 16.6275 12.0524 15.8692C12.4426 15.4503 12.8658 15.0622 13.2715 14.6575C13.7492 14.1809 13.7048 13.9045 13.0906 13.5894C12.5311 13.3024 11.9508 13.0526 11.4068 12.7391C10.9316 12.4652 10.5278 12.0957 10.3782 11.5308C10.3424 11.3956 10.3315 11.2539 10.3336 11.096C11.0505 12.2177 12.2358 12.4752 13.3802 12.816C13.8303 12.9501 14.2819 13.0988 14.7047 13.2998C15.2598 13.5638 15.4729 14.0303 15.2942 14.6094C15.1651 15.0279 14.9682 15.4317 14.7563 15.8173C14.3048 16.6388 13.8782 17.4645 13.9368 18.4385C13.9541 18.7249 14.0344 19.0076 14.0859 19.292C14.133 19.2873 14.1802 19.2825 14.2273 19.2778C14.2273 18.8579 14.1746 18.4299 14.2377 18.0197C14.3957 16.9915 14.9853 16.1904 15.6609 15.4283C16.1117 14.9198 16.5426 14.3757 16.8777 13.7879C17.1654 13.2834 17.0035 12.8569 16.4967 12.5496C16.0596 12.2845 15.5777 12.0933 15.1167 11.8671C14.9633 11.7919 14.8109 11.714 14.6624 11.6296C14.3158 11.4327 14.2291 11.129 14.4022 10.7917C14.5775 10.4504 14.7978 10.1301 15.0178 9.81417C15.6052 8.97106 16.0256 8.07283 16.0017 7.01044C16.3584 7.86081 16.2724 8.69881 15.9485 9.52705C15.5375 10.5779 15.6515 10.9018 16.6654 11.3916C17.1671 11.634 17.6951 11.8233 18.1909 12.0764C19.3903 12.6885 19.6136 13.6768 18.8034 14.7633C18.3082 15.4276 17.7651 16.057 17.2854 16.7318C16.3815 18.0032 16.8059 19.4475 17.6043 20.3146C18.0281 20.7749 18.5265 20.7537 18.9326 20.2729C19.5141 19.5844 19.5945 18.7865 19.3863 17.9389C19.3597 17.8305 19.3242 17.7242 19.3197 17.605C19.8533 18.1732 20.2149 18.8269 20.327 19.6057C20.6699 19.3576 20.8104 18.8022 20.5811 18.1986C20.3333 17.5464 20.0004 16.9271 19.717 16.2879C19.2995 15.3461 19.5103 14.5472 20.3783 13.8635C20.2996 14.1046 20.2359 14.302 20.1708 14.499C19.9108 15.2857 20.0791 15.9651 20.6956 16.5201C21.2703 17.0375 21.7591 17.6153 21.9218 18.391C22.2251 19.8364 21.8995 21.1554 20.98 22.2967C20.6423 22.7159 20.1739 23.0297 19.7425 23.3647C20.9074 22.256 21.5428 20.9539 21.3316 19.3221C21.2581 19.4487 21.2783 19.6024 21.2365 19.7369C21.0866 20.2199 20.9753 20.7293 20.7347 21.1656C20.5283 21.5399 20.218 21.5093 19.9316 21.1743C19.8016 21.0223 19.7115 20.8362 19.592 20.6477C19.0446 21.9852 18.207 22.2836 16.9842 21.4475C16.1041 20.8457 15.484 20.1269 15.5613 18.9868C15.6191 18.1335 16.0572 17.4489 16.5405 16.7864C17.1471 15.955 17.8134 15.1519 18.0783 14.132C18.2054 13.6427 18.3236 13.1074 17.7979 12.699C17.7529 12.6789 17.7207 12.6771 17.6884 12.6752C17.7207 12.6992 17.753 12.7232 17.7871 12.7825C18.0212 13.4729 17.8438 14.0784 17.4795 14.6104C17.0206 15.2804 16.4999 15.9084 15.9971 16.5477C14.9521 17.8763 14.458 19.3531 14.8991 21.0271C15.0519 21.6069 15.3818 22.1402 15.6205 22.6718C15.0818 22.6536 13.9676 21.9957 13.381 21.2345C12.3775 19.9323 12.5104 18.4668 12.8402 16.9725C12.0551 17.8219 11.6759 18.8304 11.6044 19.9714C11.5336 21.1028 11.7371 22.1946 12.1497 23.3515C9.44309 21.9557 8.52923 19.8943 9.33949 17.0518C9.16044 17.3201 9.02646 17.581 8.92612 17.8541C8.5518 18.8732 8.50787 19.9181 8.68411 20.9802C8.64043 20.9824 8.62295 20.9829 8.60547 20.9835C8.57646 20.9147 8.54745 20.846 8.51662 20.7216C8.49011 20.6013 8.46541 20.5367 8.44071 20.4721C8.43798 20.4562 8.43525 20.4403 8.43081 20.3702C8.4045 20.2249 8.37989 20.1338 8.35529 20.0427C8.35111 20.0025 8.34694 19.9623 8.3429 19.8526C8.34355 19.4693 8.34407 19.1555 8.34459 18.8417C8.34515 18.8253 8.34571 18.8088 8.37106 18.7474C8.40671 18.6032 8.41756 18.5041 8.42841 18.405C8.43043 18.365 8.43245 18.3249 8.45806 18.2407C8.493 18.1525 8.50433 18.1086 8.51567 18.0648C8.84052 17.4663 9.16536 16.8679 9.51698 16.2859C9.54375 16.3992 9.54375 16.496 9.54375 16.5914C9.63694 16.5914 9.71815 16.5914 9.79935 16.5914ZM14.2302 19.5642C14.2317 19.5337 14.2331 19.5032 14.2345 19.4727C14.225 19.4936 14.2154 19.5145 14.2302 19.5642ZM9.44227 16.8409C9.42506 16.8411 9.4075 16.8397 9.39096 16.8431C9.38823 16.8437 9.38994 16.8656 9.3896 16.8776C9.40703 16.8774 9.42446 16.8773 9.44227 16.8409Z" fill="#B4A5FD"/>
<path d="M22.1514 25.9436C23.4511 25.3047 24.7642 24.7453 25.8587 23.8247C26.3633 23.4001 26.7888 22.8815 27.2441 22.412C27.2166 23.1778 27.0645 23.972 26.7204 24.7223C25.8951 26.5222 24.5267 27.8414 22.9072 28.912C20.82 30.2918 18.497 31.0648 16.0282 31.369C13.726 31.6526 11.4568 31.4817 9.32253 30.485C8.21122 29.966 7.22233 29.2597 6.55603 28.186C6.52688 28.139 6.50664 28.0863 6.48534 28.035C6.48176 28.0263 6.49402 28.0111 6.49061 28.0195C7.07867 28.1714 7.65624 28.4011 8.24997 28.456C9.25241 28.5487 10.2688 28.5973 11.2725 28.5417C12.4207 28.4782 13.5636 28.2955 14.7052 28.1382C16.7523 27.8563 18.7119 27.2414 20.6441 26.5312C21.14 26.349 21.6293 26.1487 22.1514 25.9436Z" fill="#FFDEB5"/>
<path d="M8.71028 20.9785C8.50785 19.9181 8.55178 18.8732 8.9261 17.8542C9.02645 17.581 9.16043 17.3201 9.33948 17.0518C8.52922 19.8943 9.44307 21.9558 12.1496 23.3515C11.7371 22.1946 11.5336 21.1028 11.6044 19.9714C11.6758 18.8304 12.055 17.8219 12.8401 16.9725C12.5104 18.4668 12.3775 19.9323 13.381 21.2345C13.9676 21.9957 15.0818 22.6536 15.6205 22.6718C15.3818 22.1402 15.0519 21.6069 14.8991 21.0271C14.458 19.3531 14.952 17.8763 15.9971 16.5477C16.4999 15.9084 17.0206 15.2804 17.4794 14.6104C17.8437 14.0784 18.0211 13.4729 17.7934 12.775C17.798 12.7323 17.8106 12.7173 17.8106 12.7173C18.3236 13.1074 18.2054 13.6427 18.0783 14.132C17.8134 15.1519 17.1471 15.955 16.5405 16.7864C16.0571 17.4489 15.6191 18.1336 15.5613 18.9868C15.484 20.1269 16.104 20.8457 16.9842 21.4475C18.2069 22.2836 19.0446 21.9852 19.592 20.6477C19.7115 20.8362 19.8015 21.0223 19.9315 21.1743C20.218 21.5093 20.5283 21.5399 20.7347 21.1656C20.9752 20.7293 21.0866 20.22 21.2365 19.7369C21.2782 19.6024 21.2581 19.4487 21.3316 19.3221C21.5428 20.9539 20.9074 22.256 19.7112 23.365C19.0542 24.0566 18.2344 24.4065 17.3602 24.6386C14.9222 25.2857 12.6367 24.9438 10.551 23.5037C9.75274 22.9526 9.15056 22.2161 8.78248 21.2438C8.75248 21.1179 8.73138 21.0482 8.71028 20.9785Z" fill="#FEB4B5"/>
<path d="M25.0991 20.4279C24.6041 20.0909 24.1245 19.7839 23.758 19.5493C24.4947 19.6418 25.4045 19.7359 26.1724 20.2999C26.6774 20.6708 26.7491 21.3151 26.353 21.9146C25.8291 22.7075 25.0833 23.2698 24.2852 23.7518C21.3862 25.5028 18.2064 26.5007 14.9128 27.1694C13.2047 27.5161 11.4765 27.7563 9.72934 27.674C8.73906 27.6274 7.7219 27.5912 6.84189 27.0269C6.12135 26.5648 5.96442 26.0486 6.41389 25.3178C6.70341 24.8471 7.13013 24.4607 7.49535 24.0366C7.54843 24.0714 7.60151 24.1062 7.65458 24.1411C7.60307 24.2501 7.55893 24.3634 7.49885 24.4675C7.04459 25.2546 7.21664 25.8589 8.07437 26.168C8.64426 26.3734 9.25813 26.5247 9.86057 26.5602C12.6029 26.722 15.2729 26.261 17.8668 25.4105C19.3291 24.931 20.7803 24.3808 22.1649 23.7138C23.0633 23.2809 23.8647 22.6194 24.6471 21.9835C25.0928 21.6212 25.3907 21.0979 25.0991 20.4279Z" fill="#FFDFB6"/>
<path d="M30.8436 21.4663C29.3715 22.2054 28.3801 23.3638 27.6597 24.7932C27.6184 23.4425 28.0394 22.2568 29.1643 21.532C30.1989 20.8653 31.3576 20.3826 32.4848 19.8699C34.0073 19.1773 35.5477 18.5286 36.916 17.5414C37.6712 16.9965 38.2667 16.3172 38.7621 15.5363C39.0529 15.0779 39.4369 14.7312 39.9823 14.5836C40.4295 14.4626 40.8214 14.5748 41.124 14.8873C41.4365 15.21 41.4118 15.6096 41.2284 16.007C40.9016 16.7156 40.3117 17.1671 39.6797 17.5615C38.1304 18.5284 36.4044 19.1086 34.7268 19.7961C33.433 20.3263 32.156 20.8978 30.8436 21.4663Z" fill="#FFDFB5"/>
<path d="M9.80703 16.5774C9.69775 16.5993 9.61158 16.5993 9.51269 16.5993C9.51269 16.5101 9.51269 16.4197 9.5108 16.2994C9.6419 16.1159 9.77489 15.9624 9.90788 15.8088C9.93419 15.8214 9.96051 15.8339 9.98682 15.8464C9.93459 16.0828 9.88237 16.3192 9.80703 16.5774Z" fill="#B9A7FA"/>
<path d="M8.32258 18.8676C8.3442 19.1555 8.34368 19.4694 8.34347 19.8223C8.32933 19.5388 8.31488 19.2162 8.32258 18.8676Z" fill="#B9A7FA"/>
<path d="M8.68409 20.9802C8.73138 21.0482 8.75248 21.1179 8.77005 21.2163C8.71309 21.1761 8.65965 21.1073 8.60583 21.011C8.62293 20.9829 8.64042 20.9824 8.68409 20.9802Z" fill="#B9A7FA"/>
<path d="M8.40781 18.4266C8.41775 18.5041 8.40686 18.6032 8.37475 18.723C8.36467 18.6452 8.37582 18.5467 8.40781 18.4266Z" fill="#B9A7FA"/>
<path d="M8.35168 20.0728C8.3799 20.1338 8.4045 20.2249 8.42961 20.346C8.40277 20.2849 8.37542 20.1939 8.35168 20.0728Z" fill="#B9A7FA"/>
<path d="M8.43774 20.4998C8.46541 20.5367 8.49011 20.6013 8.51532 20.6934C8.48882 20.6564 8.4618 20.5919 8.43774 20.4998Z" fill="#B9A7FA"/>
<path d="M8.49707 18.0792C8.50451 18.1087 8.49313 18.1525 8.46447 18.2112C8.45755 18.1819 8.4679 18.1377 8.49707 18.0792Z" fill="#B9A7FA"/>
<path d="M7.82698 23.9956C7.83573 23.9913 7.84449 23.9871 7.83961 23.9888C7.82599 23.9947 7.82698 23.9956 7.82698 23.9956Z" fill="#FFDFB6"/>
<path d="M7.82611 23.9936C7.81641 23.9958 7.80705 23.9985 7.81255 23.998C7.8274 23.9949 7.82645 23.9941 7.82611 23.9936Z" fill="#FFDFB6"/>
<path d="M14.218 19.5498C14.2154 19.5146 14.225 19.4936 14.2346 19.4727C14.2332 19.5032 14.2317 19.5337 14.218 19.5498Z" fill="white"/>
<path d="M9.4421 16.8594C9.42449 16.8781 9.40706 16.8783 9.38963 16.8785C9.38997 16.8661 9.38825 16.8438 9.39098 16.8432C9.40753 16.8397 9.42508 16.8411 9.4421 16.8594Z" fill="#FEB4B5"/>
<path d="M17.7916 12.7397C17.753 12.7232 17.7207 12.6992 17.6884 12.6752C17.7207 12.6771 17.7529 12.6789 17.7979 12.699C17.8106 12.7172 17.798 12.7323 17.7916 12.7397Z" fill="#FEB4B5"/>
</g>
<defs>
<filter id="filter0_dd_1_7" x="-4" y="0" width="51" height="51" filterUnits="userSpaceOnUse" color-interpolation-filters="sRGB">
<feFlood flood-opacity="0" result="BackgroundImageFix"/>
<feColorMatrix in="SourceAlpha" type="matrix" values="0 0 0 0 0 0 0 0 0 0 0 0 0 0 0 0 0 0 127 0" result="hardAlpha"/>
<feOffset dy="4"/>
<feGaussianBlur stdDeviation="2"/>
<feComposite in2="hardAlpha" operator="out"/>
<feColorMatrix type="matrix" values="0 0 0 0 0 0 0 0 0 0 0 0 0 0 0 0 0 0 0.25 0"/>
<feBlend mode="normal" in2="BackgroundImageFix" result="effect1_dropShadow_1_7"/>
<feColorMatrix in="SourceAlpha" type="matrix" values="0 0 0 0 0 0 0 0 0 0 0 0 0 0 0 0 0 0 127 0" result="hardAlpha"/>
<feOffset dy="4"/>
<feGaussianBlur stdDeviation="2"/>
<feComposite in2="hardAlpha" operator="out"/>
<feColorMatrix type="matrix" values="0 0 0 0 0 0 0 0 0 0 0 0 0 0 0 0 0 0 0.25 0"/>
<feBlend mode="normal" in2="effect1_dropShadow_1_7" result="effect2_dropShadow_1_7"/>
<feBlend mode="normal" in="SourceGraphic" in2="effect2_dropShadow_1_7" result="shape"/>
</filter>
</defs>
</svg>
